<svg version="1.1" id="Layer_1" xmlns="http://www.w3.org/2000/svg" xmlns:xlink="http://www.w3.org/1999/xlink" x="0px" y="0px"
	 width="100%" viewBox="0 0 256 240" enable-background="new 0 0 256 240" xml:space="preserve">
<path fill="#000000" opacity="1.000000" stroke="none" 
	d="
M154.405518,145.592316 
	C145.849808,144.827866 137.888412,143.959290 130.101517,140.868912 
	C120.989258,137.252548 115.620926,130.463730 110.206696,122.842674 
	C104.211021,114.403168 104.656761,104.553589 102.198494,95.373970 
	C99.532822,85.419830 98.407234,75.147903 97.459038,64.866463 
	C96.690895,56.537292 99.365730,49.534180 104.809097,42.687317 
	C99.265327,43.774158 94.380325,45.358353 89.755051,47.736530 
	C87.859032,48.711411 85.991501,49.518631 84.448471,47.364159 
	C82.892105,45.191074 84.891090,44.193951 86.076149,42.851521 
	C92.037865,36.098141 99.257614,30.606726 106.089638,24.952288 
	C114.303482,18.154202 125.386848,16.493519 135.637344,13.587683 
	C150.692703,9.319764 165.747452,10.957636 180.640121,13.537546 
	C190.523941,15.249753 198.714066,21.029642 204.970688,28.985935 
	C206.971191,31.529900 209.354233,33.079903 212.252716,33.792080 
	C217.906479,35.181244 220.513092,39.018471 221.398560,44.372948 
	C222.748611,52.536652 221.775925,60.643826 220.419159,68.689819 
	C219.850723,72.060837 219.828110,74.816689 221.894821,77.998306 
	C227.180344,86.135208 224.234085,97.147118 215.044556,102.988861 
	C210.984863,105.569603 209.818665,108.684113 210.198303,112.891602 
	C210.837692,119.977928 208.613525,126.015358 202.578583,129.695770 
	C192.993149,135.541443 194.022018,150.720917 201.460129,158.445251 
	C212.030350,169.422256 223.111038,180.123383 230.167191,193.991455 
	C235.024658,203.538300 234.842255,214.001083 234.960678,224.230194 
	C235.005249,228.080566 232.225021,231.496979 227.003540,231.418777 
	C220.712173,231.324554 214.404968,232.132324 208.285934,229.877975 
	C205.671143,228.914627 203.057037,229.441391 200.453522,230.284531 
	C191.869766,233.064407 183.136719,232.146866 174.180054,231.295029 
	C180.249619,231.547852 180.640427,227.669556 179.772919,223.616302 
	C178.856033,219.332352 178.993896,215.855759 182.955795,213.090576 
	C184.037735,212.335434 184.488770,210.569626 185.046249,209.193451 
	C186.016190,206.799164 186.746979,204.361053 183.999466,202.516647 
	C181.025879,200.520508 179.274933,202.968903 177.590103,204.564163 
	C174.636917,207.360321 171.982620,210.472168 168.558640,214.142639 
	C166.396179,206.792557 164.836838,199.641525 156.710709,196.745422 
	C156.229401,200.847885 157.688599,203.944580 159.348282,206.952637 
	C161.071167,210.075256 162.219727,213.337387 162.152069,216.936081 
	C161.993774,225.355118 158.247925,229.147980 149.927475,229.068497 
	C146.022614,229.031174 142.559662,229.468063 139.124100,231.891113 
	C134.422943,235.206757 129.657272,232.713776 129.973099,227.066269 
	C131.264908,203.965469 135.725891,181.814819 150.878647,163.206299 
	C152.581497,161.115082 154.365356,158.931808 156.835709,157.984253 
	C161.521957,156.186752 160.987152,152.397858 160.729721,148.812469 
	C160.455917,144.999115 156.865173,146.643799 154.405518,145.592316 
M181.855545,46.424847 
	C177.790588,47.896137 173.783020,49.561584 169.644653,50.784428 
	C165.460495,52.020805 163.250412,49.742718 164.165054,45.432846 
	C164.705933,42.884281 165.383453,40.364708 165.998718,37.835434 
	C163.491653,36.514065 161.639694,37.987579 159.719604,38.791260 
	C154.507629,40.972824 149.360825,43.314728 144.111465,45.399975 
	C142.048370,46.219517 139.913315,47.974239 137.530182,46.391651 
	C134.977478,44.696457 136.561584,42.005936 136.615341,39.458107 
	C131.104477,41.820450 126.240974,44.298397 121.922562,47.761635 
	C115.844772,52.635826 114.551842,52.547920 109.290291,46.786751 
	C106.669258,48.964470 105.000923,51.615566 103.925453,54.918179 
	C100.933617,64.105713 103.857903,73.058899 104.965683,82.000740 
	C105.959183,90.020111 108.336349,97.859131 109.873177,105.822083 
	C112.627335,120.092514 119.652435,131.034225 133.664215,136.404449 
	C139.420395,138.610596 145.486557,139.674698 151.717743,139.809494 
	C156.618271,139.915527 161.577026,139.009796 166.239075,139.125931 
	C171.507172,139.257156 176.559540,139.301468 181.236481,137.325058 
	C194.794632,131.595551 206.790390,124.416443 204.969498,106.611282 
	C204.657013,103.555717 206.157578,101.546227 209.246048,100.123055 
	C216.053177,96.986305 219.917343,89.142540 218.077698,83.146179 
	C210.506912,86.689186 215.031311,78.059860 210.709869,76.766991 
	C209.143478,76.506844 207.693222,78.212837 206.281464,80.192528 
	C204.666428,82.457275 202.811508,82.473488 201.929291,79.741730 
	C198.901093,70.365181 196.313278,60.912262 196.297882,50.892719 
	C196.287079,43.867336 194.084290,42.505219 187.321960,44.551586 
	C185.730789,45.033092 184.179672,45.647049 181.855545,46.424847 
M149.612549,173.857513 
	C149.065384,175.000931 147.755707,175.860382 148.373703,177.686691 
	C152.413498,179.750519 157.425018,181.048355 159.553192,185.877075 
	C161.677902,190.697937 165.151016,194.397156 168.523026,198.294662 
	C170.700867,200.811905 172.109726,200.915863 174.596786,198.855591 
	C185.352966,189.945267 192.413834,177.517288 203.855576,169.332214 
	C202.100983,166.091293 200.471985,163.745239 196.917358,162.827179 
	C195.672272,166.446396 194.307129,169.804413 193.371918,173.278168 
	C192.019363,178.302155 190.187866,179.255798 185.584427,176.752472 
	C182.708481,175.188522 179.910721,173.480774 177.118881,171.861343 
	C175.454422,173.819839 176.144760,177.006912 173.332123,177.367599 
	C170.661209,176.848450 171.401505,173.778198 169.786011,173.065002 
	C165.561157,172.924911 162.849854,177.792282 158.780579,175.880127 
	C153.744583,173.513748 157.814590,168.903915 156.902298,165.318802 
	C153.877609,167.522522 151.870468,170.350616 149.612549,173.857513 
M190.128754,146.564728 
	C189.891632,144.451843 191.062088,142.320404 190.002228,139.922302 
	C183.338211,141.948639 176.860657,144.599792 169.884323,145.249069 
	C168.133530,145.412018 167.387466,146.409286 166.961761,148.093552 
	C166.057587,151.670715 169.808716,160.629318 173.744812,162.715485 
	C177.522354,164.717651 179.110947,160.500366 181.709412,159.156418 
	C183.013397,158.481964 183.944977,157.030899 185.272659,156.469269 
	C189.442596,154.705338 191.013733,151.741089 190.128754,146.564728 
M196.611496,203.430359 
	C197.239243,206.577423 198.988327,208.886047 201.869995,210.280304 
	C203.709641,211.170410 205.462234,210.958130 206.873535,209.404556 
	C208.168564,207.978989 208.989685,206.314377 208.089859,204.393936 
	C206.904480,201.863983 204.996750,199.926529 202.184525,199.485352 
	C199.649841,199.087692 197.656998,200.223206 196.611496,203.430359 
M182.040802,167.919205 
	C183.818268,169.394073 185.667496,170.730209 188.147797,171.187714 
	C190.403427,167.715973 191.012085,163.838425 192.003525,159.489975 
	C187.456650,161.243408 184.333054,163.929367 182.040802,167.919205 
M167.099335,163.656097 
	C164.080536,162.056534 163.374573,162.945953 162.975601,169.512482 
	C164.604782,167.316742 169.575745,169.067368 167.099335,163.656097 
z"/>
<path fill="#000000" opacity="1.000000" stroke="none" 
	d="
M165.920654,94.973190 
	C164.778564,90.682831 161.408630,90.843842 158.543793,90.825195 
	C153.216278,90.790520 147.663879,89.986076 145.302536,97.215797 
	C143.807739,101.792427 135.947067,105.245750 131.150360,104.725700 
	C124.513245,104.006126 118.725281,102.188324 116.664162,94.735405 
	C115.155930,89.281693 117.532753,84.192482 123.146500,81.887772 
	C126.368782,80.564873 129.679764,79.425850 133.015549,78.418396 
	C139.608719,76.427193 143.184418,77.760445 146.867004,83.577904 
	C147.648529,84.812508 148.396042,85.602905 149.915955,85.714088 
	C154.389374,86.041336 158.786118,84.361588 163.318924,85.381798 
	C164.716644,85.696396 165.464676,83.985123 166.224304,82.933609 
	C168.986694,79.109802 172.590927,77.535355 177.380142,77.639801 
	C182.270950,77.746452 186.999969,78.499374 191.633865,79.820587 
	C199.050064,81.935059 201.214142,90.168877 195.606125,95.518303 
	C188.674973,102.129883 180.233612,103.553085 171.031403,101.665108 
	C167.467911,100.934006 167.693985,97.459198 165.920654,94.973190 
M192.824341,87.799347 
	C192.551346,87.208191 192.427032,86.449631 191.980911,86.053391 
	C189.328201,83.697304 176.411346,82.054428 173.321838,83.839348 
	C170.697083,85.355759 169.290619,87.588470 170.251663,90.900543 
	C171.813629,96.283493 175.194473,98.353752 182.260422,96.448219 
	C186.500534,95.304764 192.106781,94.854340 192.824341,87.799347 
M131.567444,84.339249 
	C129.228424,85.192162 126.767647,85.811050 124.577637,86.950401 
	C120.881439,88.873322 120.279274,92.963860 123.054108,95.667206 
	C126.965111,99.477478 134.103271,99.973877 138.567535,96.746025 
	C141.463547,94.652115 143.367584,87.706360 141.235489,84.974236 
	C138.845581,81.911774 135.455353,82.394798 131.567444,84.339249 
z"/>
<path fill="#000000" opacity="1.000000" stroke="none" 
	d="
M153.925385,111.480186 
	C156.516541,110.463142 158.552017,110.604546 159.848846,112.844849 
	C160.615906,114.169930 160.097549,115.443550 158.767090,116.182068 
	C156.558762,117.407890 153.848862,118.540924 151.841278,116.879364 
	C148.909805,114.453194 150.835114,112.688881 153.925385,111.480186 
z"/>
<path fill="#000000" opacity="1.000000" stroke="none" 
	d="
M172.888565,188.338043 
	C169.783081,187.847641 169.419617,186.156082 170.588760,183.983841 
	C171.282562,182.694763 172.668503,181.839233 173.853424,183.097153 
	C175.500351,184.845535 176.161880,186.886185 172.888565,188.338043 
z"/>
</svg>